<mxfile host="app.diagrams.net" agent="Mozilla/5.0 (Windows NT 10.0; Win64; x64) AppleWebKit/537.36 (KHTML, like Gecko) Chrome/133.0.0.0 Safari/537.36" version="26.0.13">
  <diagram name="Page-1" id="jlfPTwxIBofA1yrSqcrZ">
    <mxGraphModel dx="2261" dy="1907" grid="1" gridSize="10" guides="1" tooltips="1" connect="1" arrows="1" fold="1" page="1" pageScale="1" pageWidth="827" pageHeight="1169" math="0" shadow="0">
      <root>
        <mxCell id="0" />
        <mxCell id="1" parent="0" />
        <mxCell id="RsO8aFewrcQ2abt0Akd3-1" value="&lt;b&gt;&lt;font style=&quot;font-size: 21px;&quot;&gt;Encolleuse automatisée&lt;/font&gt;&lt;/b&gt;" style="ellipse;whiteSpace=wrap;html=1;aspect=fixed;fillColor=#a0522d;strokeColor=#6D1F00;fontColor=#ffffff;fontSize=14;" parent="1" vertex="1">
          <mxGeometry x="205" y="83" width="260" height="260" as="geometry" />
        </mxCell>
        <mxCell id="ZQVcoE4Sk8YREgEVMJvQ-83" style="edgeStyle=orthogonalEdgeStyle;rounded=0;orthogonalLoop=1;jettySize=auto;html=1;exitX=1;exitY=1;exitDx=0;exitDy=0;entryX=1;entryY=0.5;entryDx=0;entryDy=0;curved=1;endArrow=none;startFill=0;" parent="1" source="RsO8aFewrcQ2abt0Akd3-2" target="RsO8aFewrcQ2abt0Akd3-7" edge="1">
          <mxGeometry relative="1" as="geometry">
            <Array as="points">
              <mxPoint x="-10" y="160" />
              <mxPoint x="240" y="160" />
              <mxPoint x="240" y="190" />
              <mxPoint x="120" y="190" />
              <mxPoint x="120" y="210" />
            </Array>
          </mxGeometry>
        </mxCell>
        <mxCell id="ZQVcoE4Sk8YREgEVMJvQ-84" value="&lt;span style=&quot;font-size: 14px;&quot;&gt;FP 1&lt;/span&gt;" style="edgeLabel;html=1;align=center;verticalAlign=middle;resizable=0;points=[];" parent="ZQVcoE4Sk8YREgEVMJvQ-83" vertex="1" connectable="0">
          <mxGeometry x="-0.4264" y="-1" relative="1" as="geometry">
            <mxPoint x="36" as="offset" />
          </mxGeometry>
        </mxCell>
        <mxCell id="RsO8aFewrcQ2abt0Akd3-2" value="Support à&amp;nbsp;&lt;div&gt;encoller&lt;/div&gt;" style="ellipse;whiteSpace=wrap;html=1;fontSize=14;" parent="1" vertex="1">
          <mxGeometry x="-130" y="100" width="140" height="40" as="geometry" />
        </mxCell>
        <mxCell id="ZQVcoE4Sk8YREgEVMJvQ-69" style="edgeStyle=orthogonalEdgeStyle;rounded=0;orthogonalLoop=1;jettySize=auto;html=1;exitX=0.5;exitY=1;exitDx=0;exitDy=0;entryX=0;entryY=0;entryDx=0;entryDy=0;curved=1;endArrow=none;startFill=0;" parent="1" source="RsO8aFewrcQ2abt0Akd3-3" target="RsO8aFewrcQ2abt0Akd3-1" edge="1">
          <mxGeometry relative="1" as="geometry">
            <Array as="points">
              <mxPoint x="70" y="60" />
              <mxPoint x="70" y="90" />
              <mxPoint x="243" y="90" />
            </Array>
          </mxGeometry>
        </mxCell>
        <mxCell id="ZQVcoE4Sk8YREgEVMJvQ-70" value="&lt;span style=&quot;font-size: 14px;&quot;&gt;FC 17&lt;/span&gt;" style="edgeLabel;html=1;align=center;verticalAlign=middle;resizable=0;points=[];" parent="ZQVcoE4Sk8YREgEVMJvQ-69" vertex="1" connectable="0">
          <mxGeometry x="-0.1974" y="-1" relative="1" as="geometry">
            <mxPoint x="45" as="offset" />
          </mxGeometry>
        </mxCell>
        <mxCell id="RsO8aFewrcQ2abt0Akd3-3" value="Réservoir de colle" style="ellipse;whiteSpace=wrap;html=1;fontSize=14;" parent="1" vertex="1">
          <mxGeometry x="-50" y="-5" width="140" height="50" as="geometry" />
        </mxCell>
        <mxCell id="RsO8aFewrcQ2abt0Akd3-7" value="&lt;span style=&quot;font-size: 14px;&quot;&gt;Environnement de commande et d&#39;exécution&lt;/span&gt;" style="ellipse;whiteSpace=wrap;html=1;" parent="1" vertex="1">
          <mxGeometry x="-170" y="180" width="180" height="60" as="geometry" />
        </mxCell>
        <mxCell id="RsO8aFewrcQ2abt0Akd3-11" value="Réseau LAN" style="ellipse;whiteSpace=wrap;html=1;" parent="1" vertex="1">
          <mxGeometry x="-110" y="270" width="140" height="40" as="geometry" />
        </mxCell>
        <mxCell id="RsO8aFewrcQ2abt0Akd3-14" value="Milieu ambiant" style="ellipse;whiteSpace=wrap;html=1;fontSize=14;" parent="1" vertex="1">
          <mxGeometry x="-50" y="343" width="120" height="40" as="geometry" />
        </mxCell>
        <mxCell id="ZQVcoE4Sk8YREgEVMJvQ-77" style="edgeStyle=orthogonalEdgeStyle;rounded=0;orthogonalLoop=1;jettySize=auto;html=1;exitX=1;exitY=0;exitDx=0;exitDy=0;entryX=0;entryY=1;entryDx=0;entryDy=0;curved=1;endArrow=none;startFill=0;" parent="1" source="RsO8aFewrcQ2abt0Akd3-17" target="RsO8aFewrcQ2abt0Akd3-1" edge="1">
          <mxGeometry relative="1" as="geometry">
            <Array as="points">
              <mxPoint x="190" y="427" />
              <mxPoint x="190" y="340" />
              <mxPoint x="243" y="340" />
            </Array>
          </mxGeometry>
        </mxCell>
        <mxCell id="ZQVcoE4Sk8YREgEVMJvQ-78" value="&lt;span style=&quot;font-size: 14px;&quot;&gt;FC 3&lt;/span&gt;" style="edgeLabel;html=1;align=center;verticalAlign=middle;resizable=0;points=[];" parent="ZQVcoE4Sk8YREgEVMJvQ-77" vertex="1" connectable="0">
          <mxGeometry x="-0.2639" y="1" relative="1" as="geometry">
            <mxPoint as="offset" />
          </mxGeometry>
        </mxCell>
        <mxCell id="RsO8aFewrcQ2abt0Akd3-17" value="Alimentation en énergie" style="ellipse;whiteSpace=wrap;html=1;fontSize=14;" parent="1" vertex="1">
          <mxGeometry x="40" y="420" width="140" height="50" as="geometry" />
        </mxCell>
        <mxCell id="RsO8aFewrcQ2abt0Akd3-20" value="Table support" style="ellipse;whiteSpace=wrap;html=1;fontSize=14;" parent="1" vertex="1">
          <mxGeometry x="190" y="460" width="120" height="40" as="geometry" />
        </mxCell>
        <mxCell id="ZQVcoE4Sk8YREgEVMJvQ-81" style="edgeStyle=orthogonalEdgeStyle;rounded=0;orthogonalLoop=1;jettySize=auto;html=1;exitX=0.5;exitY=0;exitDx=0;exitDy=0;entryX=0.5;entryY=1;entryDx=0;entryDy=0;curved=1;endArrow=none;startFill=0;" parent="1" source="RsO8aFewrcQ2abt0Akd3-23" target="RsO8aFewrcQ2abt0Akd3-1" edge="1">
          <mxGeometry relative="1" as="geometry">
            <Array as="points">
              <mxPoint x="350" y="400" />
              <mxPoint x="330" y="400" />
              <mxPoint x="330" y="343" />
            </Array>
          </mxGeometry>
        </mxCell>
        <mxCell id="ZQVcoE4Sk8YREgEVMJvQ-82" value="&lt;span style=&quot;font-size: 14px;&quot;&gt;FC 5&lt;/span&gt;" style="edgeLabel;html=1;align=center;verticalAlign=middle;resizable=0;points=[];" parent="ZQVcoE4Sk8YREgEVMJvQ-81" vertex="1" connectable="0">
          <mxGeometry x="-0.0282" y="1" relative="1" as="geometry">
            <mxPoint x="-4" y="-12" as="offset" />
          </mxGeometry>
        </mxCell>
        <mxCell id="RsO8aFewrcQ2abt0Akd3-23" value="Environnement" style="ellipse;whiteSpace=wrap;html=1;fontSize=14;" parent="1" vertex="1">
          <mxGeometry x="380" y="430" width="120" height="40" as="geometry" />
        </mxCell>
        <mxCell id="RsO8aFewrcQ2abt0Akd3-26" value="Réglementation et normes" style="ellipse;whiteSpace=wrap;html=1;fontSize=14;" parent="1" vertex="1">
          <mxGeometry x="500" y="390" width="150" height="50" as="geometry" />
        </mxCell>
        <mxCell id="RsO8aFewrcQ2abt0Akd3-29" value="Opérateur" style="ellipse;whiteSpace=wrap;html=1;fontSize=14;" parent="1" vertex="1">
          <mxGeometry x="620" y="230" width="130" height="47" as="geometry" />
        </mxCell>
        <mxCell id="ZQVcoE4Sk8YREgEVMJvQ-48" style="edgeStyle=orthogonalEdgeStyle;rounded=0;orthogonalLoop=1;jettySize=auto;html=1;exitX=0;exitY=0;exitDx=0;exitDy=0;entryX=1;entryY=1;entryDx=0;entryDy=0;curved=1;endArrow=none;startFill=0;" parent="1" source="RsO8aFewrcQ2abt0Akd3-30" target="RsO8aFewrcQ2abt0Akd3-1" edge="1">
          <mxGeometry relative="1" as="geometry">
            <Array as="points">
              <mxPoint x="561" y="330" />
              <mxPoint x="427" y="330" />
            </Array>
          </mxGeometry>
        </mxCell>
        <mxCell id="RsO8aFewrcQ2abt0Akd3-30" value="Usine du futur à Rouen" style="ellipse;whiteSpace=wrap;html=1;fontSize=14;" parent="1" vertex="1">
          <mxGeometry x="580" y="318" width="145" height="50" as="geometry" />
        </mxCell>
        <mxCell id="ZQVcoE4Sk8YREgEVMJvQ-3" value="FC 7" style="edgeLabel;html=1;align=center;verticalAlign=middle;resizable=0;points=[];fontSize=14;" parent="1" vertex="1" connectable="0">
          <mxGeometry x="560" y="330.00445986566507" as="geometry">
            <mxPoint x="-12" y="2" as="offset" />
          </mxGeometry>
        </mxCell>
        <mxCell id="ZQVcoE4Sk8YREgEVMJvQ-6" value="Bras Robot UR5" style="ellipse;whiteSpace=wrap;html=1;fontSize=14;" parent="1" vertex="1">
          <mxGeometry x="685" y="155" width="120" height="40" as="geometry" />
        </mxCell>
        <mxCell id="ZQVcoE4Sk8YREgEVMJvQ-10" value="Communication RFID" style="ellipse;whiteSpace=wrap;html=1;fontSize=14;" parent="1" vertex="1">
          <mxGeometry x="680" y="80" width="150" height="50" as="geometry" />
        </mxCell>
        <mxCell id="ZQVcoE4Sk8YREgEVMJvQ-12" value="Normes de qualité" style="ellipse;whiteSpace=wrap;html=1;fontSize=14;" parent="1" vertex="1">
          <mxGeometry x="620" width="120" height="40" as="geometry" />
        </mxCell>
        <mxCell id="ZQVcoE4Sk8YREgEVMJvQ-67" style="edgeStyle=orthogonalEdgeStyle;rounded=0;orthogonalLoop=1;jettySize=auto;html=1;exitX=0.947;exitY=0.74;exitDx=0;exitDy=0;entryX=0.662;entryY=0.042;entryDx=0;entryDy=0;curved=1;exitPerimeter=0;entryPerimeter=0;endArrow=none;startFill=0;" parent="1" source="ZQVcoE4Sk8YREgEVMJvQ-18" target="RsO8aFewrcQ2abt0Akd3-1" edge="1">
          <mxGeometry relative="1" as="geometry" />
        </mxCell>
        <mxCell id="ZQVcoE4Sk8YREgEVMJvQ-68" value="&lt;span style=&quot;font-size: 14px;&quot;&gt;FC 15&lt;/span&gt;" style="edgeLabel;html=1;align=center;verticalAlign=middle;resizable=0;points=[];" parent="ZQVcoE4Sk8YREgEVMJvQ-67" vertex="1" connectable="0">
          <mxGeometry x="-0.3048" y="7" relative="1" as="geometry">
            <mxPoint as="offset" />
          </mxGeometry>
        </mxCell>
        <mxCell id="ZQVcoE4Sk8YREgEVMJvQ-18" value="Circuit d&#39;alimentation en colle" style="ellipse;whiteSpace=wrap;html=1;fontSize=14;" parent="1" vertex="1">
          <mxGeometry x="120" y="-100" width="225" height="50" as="geometry" />
        </mxCell>
        <mxCell id="ZQVcoE4Sk8YREgEVMJvQ-24" value="FP 2" style="edgeLabel;html=1;align=center;verticalAlign=middle;resizable=0;points=[];fontSize=14;" parent="1" vertex="1" connectable="0">
          <mxGeometry x="299.99847577293366" y="150" as="geometry">
            <mxPoint x="-46" y="-80" as="offset" />
          </mxGeometry>
        </mxCell>
        <mxCell id="ZQVcoE4Sk8YREgEVMJvQ-64" style="edgeStyle=orthogonalEdgeStyle;rounded=0;orthogonalLoop=1;jettySize=auto;html=1;exitX=0;exitY=1;exitDx=0;exitDy=0;entryX=0.792;entryY=0.081;entryDx=0;entryDy=0;curved=1;endArrow=none;startFill=0;entryPerimeter=0;" parent="1" source="ZQVcoE4Sk8YREgEVMJvQ-46" target="RsO8aFewrcQ2abt0Akd3-1" edge="1">
          <mxGeometry relative="1" as="geometry">
            <Array as="points">
              <mxPoint x="470" y="-46" />
              <mxPoint x="470" y="10" />
              <mxPoint x="411" y="10" />
            </Array>
          </mxGeometry>
        </mxCell>
        <mxCell id="ZQVcoE4Sk8YREgEVMJvQ-65" value="&lt;span style=&quot;font-size: 14px;&quot;&gt;FC 14&lt;/span&gt;" style="edgeLabel;html=1;align=center;verticalAlign=middle;resizable=0;points=[];" parent="ZQVcoE4Sk8YREgEVMJvQ-64" vertex="1" connectable="0">
          <mxGeometry x="-0.4254" y="-15" relative="1" as="geometry">
            <mxPoint y="1" as="offset" />
          </mxGeometry>
        </mxCell>
        <mxCell id="ZQVcoE4Sk8YREgEVMJvQ-46" value="Système de supervision" style="ellipse;whiteSpace=wrap;html=1;fontSize=14;" parent="1" vertex="1">
          <mxGeometry x="477.5" y="-80" width="142.5" height="40" as="geometry" />
        </mxCell>
        <mxCell id="ZQVcoE4Sk8YREgEVMJvQ-47" style="edgeStyle=orthogonalEdgeStyle;rounded=0;orthogonalLoop=1;jettySize=auto;html=1;entryX=0.662;entryY=0.965;entryDx=0;entryDy=0;entryPerimeter=0;curved=1;endArrow=none;startFill=0;" parent="1" source="RsO8aFewrcQ2abt0Akd3-26" target="RsO8aFewrcQ2abt0Akd3-1" edge="1">
          <mxGeometry relative="1" as="geometry">
            <Array as="points">
              <mxPoint x="575" y="380" />
              <mxPoint x="377" y="380" />
            </Array>
          </mxGeometry>
        </mxCell>
        <mxCell id="ZQVcoE4Sk8YREgEVMJvQ-97" value="&lt;span style=&quot;font-size: 14px;&quot;&gt;FC 6&lt;/span&gt;" style="edgeLabel;html=1;align=center;verticalAlign=middle;resizable=0;points=[];" parent="ZQVcoE4Sk8YREgEVMJvQ-47" vertex="1" connectable="0">
          <mxGeometry x="-0.3725" y="-10" relative="1" as="geometry">
            <mxPoint x="-27" y="10" as="offset" />
          </mxGeometry>
        </mxCell>
        <mxCell id="ZQVcoE4Sk8YREgEVMJvQ-49" style="edgeStyle=orthogonalEdgeStyle;rounded=0;orthogonalLoop=1;jettySize=auto;html=1;exitX=0.5;exitY=1;exitDx=0;exitDy=0;entryX=1;entryY=0;entryDx=0;entryDy=0;curved=1;endArrow=none;startFill=0;" parent="1" source="ZQVcoE4Sk8YREgEVMJvQ-46" target="RsO8aFewrcQ2abt0Akd3-1" edge="1">
          <mxGeometry relative="1" as="geometry" />
        </mxCell>
        <mxCell id="ZQVcoE4Sk8YREgEVMJvQ-93" value="&lt;span style=&quot;font-size: 14px;&quot;&gt;FC 13&lt;/span&gt;" style="edgeLabel;html=1;align=center;verticalAlign=middle;resizable=0;points=[];" parent="ZQVcoE4Sk8YREgEVMJvQ-49" vertex="1" connectable="0">
          <mxGeometry x="-0.2592" y="-1" relative="1" as="geometry">
            <mxPoint y="1" as="offset" />
          </mxGeometry>
        </mxCell>
        <mxCell id="ZQVcoE4Sk8YREgEVMJvQ-50" style="edgeStyle=orthogonalEdgeStyle;rounded=0;orthogonalLoop=1;jettySize=auto;html=1;exitX=0;exitY=0.5;exitDx=0;exitDy=0;curved=1;entryX=0.931;entryY=0.738;entryDx=0;entryDy=0;entryPerimeter=0;endArrow=none;startFill=0;" parent="1" source="RsO8aFewrcQ2abt0Akd3-29" target="RsO8aFewrcQ2abt0Akd3-1" edge="1">
          <mxGeometry relative="1" as="geometry">
            <mxPoint x="450" y="280" as="targetPoint" />
          </mxGeometry>
        </mxCell>
        <mxCell id="ZQVcoE4Sk8YREgEVMJvQ-52" value="&lt;span style=&quot;font-size: 14px;&quot;&gt;FC 8&lt;/span&gt;" style="edgeLabel;html=1;align=center;verticalAlign=middle;resizable=0;points=[];" parent="ZQVcoE4Sk8YREgEVMJvQ-50" vertex="1" connectable="0">
          <mxGeometry x="-0.4525" y="3" relative="1" as="geometry">
            <mxPoint x="-5" y="-3" as="offset" />
          </mxGeometry>
        </mxCell>
        <mxCell id="ZQVcoE4Sk8YREgEVMJvQ-56" style="edgeStyle=orthogonalEdgeStyle;rounded=0;orthogonalLoop=1;jettySize=auto;html=1;exitX=0;exitY=0.5;exitDx=0;exitDy=0;entryX=0.996;entryY=0.442;entryDx=0;entryDy=0;entryPerimeter=0;curved=1;endArrow=none;startFill=0;" parent="1" source="ZQVcoE4Sk8YREgEVMJvQ-6" target="RsO8aFewrcQ2abt0Akd3-1" edge="1">
          <mxGeometry relative="1" as="geometry" />
        </mxCell>
        <mxCell id="ZQVcoE4Sk8YREgEVMJvQ-57" value="&lt;span style=&quot;font-size: 14px;&quot;&gt;FC 9&lt;/span&gt;" style="edgeLabel;html=1;align=center;verticalAlign=middle;resizable=0;points=[];" parent="ZQVcoE4Sk8YREgEVMJvQ-56" vertex="1" connectable="0">
          <mxGeometry x="-0.4835" y="2" relative="1" as="geometry">
            <mxPoint as="offset" />
          </mxGeometry>
        </mxCell>
        <mxCell id="ZQVcoE4Sk8YREgEVMJvQ-58" style="edgeStyle=orthogonalEdgeStyle;rounded=0;orthogonalLoop=1;jettySize=auto;html=1;exitX=0;exitY=0.5;exitDx=0;exitDy=0;entryX=0.973;entryY=0.338;entryDx=0;entryDy=0;entryPerimeter=0;curved=1;endArrow=none;startFill=0;" parent="1" source="ZQVcoE4Sk8YREgEVMJvQ-10" target="RsO8aFewrcQ2abt0Akd3-1" edge="1">
          <mxGeometry relative="1" as="geometry">
            <Array as="points">
              <mxPoint x="680" y="130" />
              <mxPoint x="573" y="130" />
              <mxPoint x="573" y="171" />
            </Array>
          </mxGeometry>
        </mxCell>
        <mxCell id="ZQVcoE4Sk8YREgEVMJvQ-59" value="&lt;span style=&quot;font-size: 14px;&quot;&gt;FC 11&lt;/span&gt;" style="edgeLabel;html=1;align=center;verticalAlign=middle;resizable=0;points=[];" parent="ZQVcoE4Sk8YREgEVMJvQ-58" vertex="1" connectable="0">
          <mxGeometry x="-0.3401" relative="1" as="geometry">
            <mxPoint as="offset" />
          </mxGeometry>
        </mxCell>
        <mxCell id="ZQVcoE4Sk8YREgEVMJvQ-60" style="edgeStyle=orthogonalEdgeStyle;rounded=0;orthogonalLoop=1;jettySize=auto;html=1;exitX=0;exitY=1;exitDx=0;exitDy=0;entryX=0.935;entryY=0.246;entryDx=0;entryDy=0;entryPerimeter=0;curved=1;endArrow=none;startFill=0;" parent="1" source="ZQVcoE4Sk8YREgEVMJvQ-12" target="RsO8aFewrcQ2abt0Akd3-1" edge="1">
          <mxGeometry relative="1" as="geometry">
            <Array as="points">
              <mxPoint x="638" y="80" />
              <mxPoint x="530" y="80" />
              <mxPoint x="530" y="147" />
            </Array>
          </mxGeometry>
        </mxCell>
        <mxCell id="ZQVcoE4Sk8YREgEVMJvQ-61" value="&lt;span style=&quot;font-size: 14px;&quot;&gt;FC 12&lt;/span&gt;" style="edgeLabel;html=1;align=center;verticalAlign=middle;resizable=0;points=[];" parent="ZQVcoE4Sk8YREgEVMJvQ-60" vertex="1" connectable="0">
          <mxGeometry x="-0.1834" y="3" relative="1" as="geometry">
            <mxPoint as="offset" />
          </mxGeometry>
        </mxCell>
        <mxCell id="ZQVcoE4Sk8YREgEVMJvQ-62" style="edgeStyle=orthogonalEdgeStyle;rounded=0;orthogonalLoop=1;jettySize=auto;html=1;exitX=0.698;exitY=0.96;exitDx=0;exitDy=0;entryX=0.5;entryY=0;entryDx=0;entryDy=0;curved=1;exitPerimeter=0;endArrow=none;startFill=0;" parent="1" source="ZQVcoE4Sk8YREgEVMJvQ-18" target="RsO8aFewrcQ2abt0Akd3-1" edge="1">
          <mxGeometry relative="1" as="geometry" />
        </mxCell>
        <mxCell id="ZQVcoE4Sk8YREgEVMJvQ-86" value="&lt;span style=&quot;font-size: 14px;&quot;&gt;FC 16&lt;/span&gt;" style="edgeLabel;html=1;align=center;verticalAlign=middle;resizable=0;points=[];" parent="ZQVcoE4Sk8YREgEVMJvQ-62" vertex="1" connectable="0">
          <mxGeometry x="-0.4319" y="-1" relative="1" as="geometry">
            <mxPoint x="9" y="-10" as="offset" />
          </mxGeometry>
        </mxCell>
        <mxCell id="ZQVcoE4Sk8YREgEVMJvQ-71" style="edgeStyle=orthogonalEdgeStyle;rounded=0;orthogonalLoop=1;jettySize=auto;html=1;exitX=1;exitY=1;exitDx=0;exitDy=0;entryX=-0.004;entryY=0.546;entryDx=0;entryDy=0;entryPerimeter=0;curved=1;endArrow=none;startFill=0;" parent="1" source="RsO8aFewrcQ2abt0Akd3-7" target="RsO8aFewrcQ2abt0Akd3-1" edge="1">
          <mxGeometry relative="1" as="geometry">
            <Array as="points">
              <mxPoint x="-16" y="240" />
              <mxPoint x="108" y="240" />
              <mxPoint x="108" y="225" />
            </Array>
          </mxGeometry>
        </mxCell>
        <mxCell id="ZQVcoE4Sk8YREgEVMJvQ-72" value="&lt;span style=&quot;font-size: 14px;&quot;&gt;FC10&lt;/span&gt;" style="edgeLabel;html=1;align=center;verticalAlign=middle;resizable=0;points=[];" parent="ZQVcoE4Sk8YREgEVMJvQ-71" vertex="1" connectable="0">
          <mxGeometry x="-0.1408" y="-4" relative="1" as="geometry">
            <mxPoint x="30" y="-14" as="offset" />
          </mxGeometry>
        </mxCell>
        <mxCell id="ZQVcoE4Sk8YREgEVMJvQ-73" style="edgeStyle=orthogonalEdgeStyle;rounded=0;orthogonalLoop=1;jettySize=auto;html=1;exitX=1;exitY=0.5;exitDx=0;exitDy=0;entryX=0.015;entryY=0.646;entryDx=0;entryDy=0;entryPerimeter=0;curved=1;endArrow=none;startFill=0;" parent="1" source="RsO8aFewrcQ2abt0Akd3-11" target="RsO8aFewrcQ2abt0Akd3-1" edge="1">
          <mxGeometry relative="1" as="geometry" />
        </mxCell>
        <mxCell id="ZQVcoE4Sk8YREgEVMJvQ-74" value="&lt;span style=&quot;font-size: 14px;&quot;&gt;FC 1&lt;/span&gt;" style="edgeLabel;html=1;align=center;verticalAlign=middle;resizable=0;points=[];" parent="ZQVcoE4Sk8YREgEVMJvQ-73" vertex="1" connectable="0">
          <mxGeometry x="-0.3431" y="2" relative="1" as="geometry">
            <mxPoint as="offset" />
          </mxGeometry>
        </mxCell>
        <mxCell id="ZQVcoE4Sk8YREgEVMJvQ-75" style="edgeStyle=orthogonalEdgeStyle;rounded=0;orthogonalLoop=1;jettySize=auto;html=1;exitX=1;exitY=0;exitDx=0;exitDy=0;entryX=0.088;entryY=0.773;entryDx=0;entryDy=0;entryPerimeter=0;curved=1;endArrow=none;startFill=0;" parent="1" source="RsO8aFewrcQ2abt0Akd3-14" target="RsO8aFewrcQ2abt0Akd3-1" edge="1">
          <mxGeometry relative="1" as="geometry" />
        </mxCell>
        <mxCell id="ZQVcoE4Sk8YREgEVMJvQ-76" value="&lt;span style=&quot;font-size: 14px;&quot;&gt;FC 2&lt;/span&gt;" style="edgeLabel;html=1;align=center;verticalAlign=middle;resizable=0;points=[];" parent="ZQVcoE4Sk8YREgEVMJvQ-75" vertex="1" connectable="0">
          <mxGeometry x="-0.4049" y="5" relative="1" as="geometry">
            <mxPoint as="offset" />
          </mxGeometry>
        </mxCell>
        <mxCell id="ZQVcoE4Sk8YREgEVMJvQ-79" style="edgeStyle=orthogonalEdgeStyle;rounded=0;orthogonalLoop=1;jettySize=auto;html=1;exitX=0.5;exitY=0;exitDx=0;exitDy=0;entryX=0.304;entryY=0.977;entryDx=0;entryDy=0;entryPerimeter=0;curved=1;endArrow=none;startFill=0;" parent="1" source="RsO8aFewrcQ2abt0Akd3-20" target="RsO8aFewrcQ2abt0Akd3-1" edge="1">
          <mxGeometry relative="1" as="geometry">
            <mxPoint x="180" y="440" as="sourcePoint" />
            <Array as="points">
              <mxPoint x="260" y="460" />
              <mxPoint x="260" y="390" />
              <mxPoint x="284" y="390" />
            </Array>
          </mxGeometry>
        </mxCell>
        <mxCell id="ZQVcoE4Sk8YREgEVMJvQ-80" value="&lt;span style=&quot;font-size: 14px;&quot;&gt;FC 4&lt;/span&gt;" style="edgeLabel;html=1;align=center;verticalAlign=middle;resizable=0;points=[];" parent="ZQVcoE4Sk8YREgEVMJvQ-79" vertex="1" connectable="0">
          <mxGeometry x="-0.1304" y="-1" relative="1" as="geometry">
            <mxPoint as="offset" />
          </mxGeometry>
        </mxCell>
        <mxCell id="3bmiHGzcEPz1GjQgOXO5-4" value="²" style="edgeStyle=none;orthogonalLoop=1;jettySize=auto;html=1;rounded=0;" edge="1" parent="1">
          <mxGeometry width="80" relative="1" as="geometry">
            <mxPoint x="300" y="220" as="sourcePoint" />
            <mxPoint x="380" y="220" as="targetPoint" />
            <Array as="points" />
          </mxGeometry>
        </mxCell>
        <mxCell id="3bmiHGzcEPz1GjQgOXO5-8" value="" style="shape=stencil(lZ1J0hzHDYVPw21FzsNatu+hCFEWw7KokOTp9gZMVw8P3V+RO+pXva4ckBgegKwP9bvff/r+148fSvr9j98+/+3jvz798MdPH+qfPpTy6ZefPv726Q/714f65w/1ux8///bxr799/scvP3z571+/9yf9X3///E//hX9/waWjJweV9J8vf+j2l/m/v/zly/M/f/rl4fl81Pb8fDlKe/98OWp5fr6dv/Dy+XoM+f1xrPX++X7k+fz8Plp5//w4Rn96fuRjpPfPz2M///6oR+nvn99Hyc/Pt6PB7+d0tP0M6LigOR+7KmAPANRjCmCcf3kN6Md43rMxjw5rmudRZQ7rKPSGdeyigAWrZGKaxjNg4xsMsLYC/r/QrwFZD4IBOiyrSXaqAQAnxwAjvoEAJmlh0jik9mpIDFj9m4ZkohGWtcPxtPPW4hwIMI/cvmkO81hFAYM00joP5ANg0htMWsOkN0nrViUzTX5BadR01KWADCeuZlWrDgDxrqaHswIqHKBqwheGRAeotnMAD4BBk27HbgqY9IZ+yuYDYNEcxrmIXw8YYdI7A2Cqup/5SGTe5jEDoNCkTVqXAkhaqynGZ/GepqngTLcUVsmEBd5gANEaBqCdbmZipwLIqLdydBGNiuLdqrolBuiwcQbYXQETTlxraqcNgHPopx9yAzRUAm2cFu0BQEfUALqsDX2ZNtXGGWDTpFfQS+Zv0ZDW6Yo8AArJ0lZfY3b038w9rVMBNOmejxzmQGrGACoa/XQCXwOK+qxz4Cr1qFsHKgHzmdNWwKAhRd06T9/gNaAfayig0pDGaQIfAKRb+zw9vBtgHRmOaF9B3S90pc3zL10BkwFLVmkfCQAjqTdjgAZzsOBCz7S9EzZulPPIn4Bl7wStYeGInOllFgj0ksUj4sIZgDSfhRfzeVlXOeX3NWCcDtsDYBBgnhHPA4D0kgF0SPU8Ia8B63Q6HwAk3ubh6T5UdEPd/wpvoJDGPQuZdMM5uN2vCqBQ1Iys7sNt718DqnoCy9Q9veFmMx8AAzbODZRs3EA6wO3NUgBpbwPImV4TPQHTpP3ZI1vrfOdrgEnrVADZB9NCEryujdrb1dbzEd0JDYproaqAQZPep+/yACC9ZFpI/Nad0TkxpSLhwGaixbWQAMxvBVkyHVEDoMHGuVIZClggfHaCRd1vdkP9QCYFkNYwgO5D40nb+aoKaPSGEUSjHZNWaarPtzvaaQOI62CAQrIUAnADdFAzfr6yAhYBblb5BhgnT/gOIHSRASja3SlI68AD5NIvQ5ooS/sWhD0ASJGZqJXwBlIzBpjhDRvOg0mOaL69mAxt4Q0Lz4MLQlUAcZW26qkogGJRA0hoaQA6QLYmKUyalLFvU1jWScs6ldHdEw/QfcSP4k1zWEF784nbgfKyraw0pH3Gtg+ajwhaB8gcLO4CveRDEq2RTubv7aSDFSUHyyVHfI19smZvAeKRLXTWHSC+xjx/4i1AvPuBhJSfr60A3Iel9sFMDNEUBhAm0YwYRewu3sEzJgfLD5AMqSCp5sdFHKzM0jrPMO8hyqIYyM6XBhwJSTVXMxKLbiTV/ARLLLowtLQTPEMATsSgW+WiAFRkLbChg01WpIA7C18NnEDDsMzdKRlSPVXbO0AOXOVisxvJTcrHGUCEzwI14u7drZVJW4jProNo77GRenTXfCkA7XQKGY4LK5pUvA2QaB9uAcwNMDHwW1tdh2EOFrmhOyQhB2rvFSyQMx3kGS+lHkdD58QAYhQHU8BmDTRVW9GgGEAc3VFO9vIdQCddruIHUTOD7bQBNAmZeR/6OcUbIPFOByreABihVHUdukkXhQNVabuLqoIVKGADEAtnANFLfXEAHuKHOz/6DiA7bYBMJy6Qm30yXbRPwvcBUJh10GKNgWbXTWAAkEFxDlpWqeMRdRO4FICk2jiGrFJD796p/aIAfMNNC90A9Yry0jcwG+osnKxSQTVjRlYilJ6Z3AwZDk/D0CoVdbA6e2RulbMCyE47ffqsBBorAU/MdgVQWObJ5Wcl0BZvXFLN1xaqSi8jeF7WNpHBcrs/FEAWaCwNXptZUQJMzZa1jm6oAXTS/WTN3qUThLZrbHYNIJlXA2R6Qw9vMLNLyxpY6VbOMOo1oKl4t8wbZ35wUgDpVnMUhIVriQvh6lnTdQLqxmzZvfDtAUDZAfMsxJupC2mKEc50HafieQdIAUCegLkiYh9qZ/HOGk/XhmbXnZ3nfagVAw4DCL/kpTcECNRjLUj2G0Di6ZqxYtAAUl1kANKtBhALVLlYaIRsWdloUBwwFEAGxfwvCWm8lBMm3W+J2QcAZTjch3w+D2VcpZsl81o6utIOGAqoF2+QITWshXsBqFja9mJIFaNdA0h+umQu6A0mq3BqygDCOhiAyP4e3NC8kVl3wPOQ8kLX4cUb5imOXw8go+iA5wOUx1VxhAL6lbTqkDqXkITyi9y4qmWfqvcGqKjIPAiTfSiYsOhbK6TyRelC0og9Z/T5XLc+a758Ua8RqJZ9JiTeGiChKjHDPiK7xOanqDvGgjdKKN1Gl9UJDAkdUE5HiNUbMlHuKD3LdT3V8ld6YlyKaK6emIXEEtR1fzl1PwLvm/CU3Umth+fZe5b60YRcuj0vOY3EPts4o9/782Q17yze/fl+8XyR5zG8GBo9J7SxPt/n/cpX8xXmM6NJ9v3S3688HnGlLp8XmudWGv5WPvX3KRnj8q/Po7z10zI+7Bf/ftgvyhCPUN+T2IHvGp+yc+DrqecXA+ah7sr1edTzRQUfLm+6PhjhDE0WJCzAHUOjiYR88KvziLV9Q1M8CR3MMbSkLF/O95ueD4Wule1dV/3ZWH821f+d5aEF1pVjs6YFD4ODv6rB3+T4tej4F/Z+2fNSPndJCmjenwO/rFXA+cIABN7bXDiU0KTEoDuJ7MJJHsj81kJrlFRHGIDqlzzalSGx7/0SgGROBHD88AJw4Sje9NRjDMT7INWnHmVdrNKzaFscd+F7K+uQMPDzeu/nOZh2oXh6JD0N3gB7AZDgleNpA0hFSLngl5KS/YUbTB0gRMjgIvekJrxckMxJffwyMYs/sgY1ZbFXlJUod7XEakak1XvyeEjih9fMfGtWZr3eVOFbrrIogPJxplpzoB5xSEULMb2Jj5W3pDm9iY8BEj3Vi+xAVfNWxxWNLfa5cpmkB5gypMUReNPuBOe9aUgt8K3cYOo+w7MsXXH3XYPexm2H0Wv2njx284T9aeXKbxa9ZICLN4ij0bhi0BNHUwG4rKH8ojUmc1ZITTVujQmFya2zaOyQmuqchExhH8ZpMd4BhKC9yPh5w2pVAEXkBpCIti0MYe4Nqw8Ayg7MUBxx7yt8BxC91DYm8LzTpSqA6irvZWY3Nz2hv+SFbJLQzujCzR7qNfiIztCX1QtSL16JsBSAyxqqHnvFSrV7QeEDgBJ4M9RKdy4AnCvUa7QzoHsHECvaO6/SVoKnc7/oSsp794EhtwEkBO2cOFpZSeY+0U6v0MLa2SiuonrJAFgLV7Soty8U7xXiUANgAWALy7rwPKwWJr15SD1UF2080ytwr54voGUNpQv3YPM1YGr2eHDdzIuKwYx8uTe3ST1fQQJwhRosz+tze49eyMFu6NrqrN99tHcAkVZ3ueANO4WaxH6mVd4BtK5yoI3bSWntwXZ6Z20VGxxP76zV2INrf3awooOpnB2onLHR5/Na6XC5C/Eau6pR9C5YBmgvfuHuhFA3474BF7krP1ax0MYA0io2uW/33g33ACCzu7ue6cntbt47EAr1sb0n3nMyMYtx71W7ARamGfYMzfubhS9c47M48bSX1s0szjTspVUtZiZJ3e+lrrRX7dIctpYjLdZ8BigyJA7Ad2xLb1grvUNnsFs9ktYd2qEHkpsvAdhhEQETr4TaW1v2vBKfV0mboDZ362z17tdm3RpKnzdfm2cA7fHLSDLnlJTz8gY5XletLChIVjpAOn0ra4GtVxa4fuad09ZgDqj3Vi7elCE2BIXyIleGPAcp7ffeLtYzsTuTaj29BU9aIfmiE9dkoSX1omFU+z83n9GQhNt8R1rsRtt85Zn3kz5rsgcB/ko76q+gjQgRtUsLzboq+bi5i8MA2ja+2QYVTc7azl34ZNome7HVgWbefAnODsWeeyHNvFPooJ4YUbv3vRSANzvsoMkmFoatpcK0B6o+76INALJyK9wyaAC8ziLcG3rRcr2GkvG78xy6pl38kgNa1nD16dU1Ci3oyoubHWo4og2Lz/wWnqDvqfrJ+6Zk47jXZeVg5CrH7DmcaSa9Vgpao3CjVVKfbHPH6NzqG987PN8BpCZlc3+zOeealOeqixmuJbxHwO+oQWmTXRuTtQYQI3fhk1nMo33m3FzvXU0SEEwsHDZADo7oBWss3om3UzKRLde7rIG5Ju9qmgq44NZFWk0tkDM9w3V4BqBILiYUVudqh+AlrsYZ6h2u/+J7DMdSlmw1LsILNPPiMvcRLv0wwEU2S4dUsd/fCagQXFIt8whdr6tcVdKWeNHbRf44KwB7jlK42SHhjTOxYmMllKW+Q7//xnjXKd9wpR9dCuUs9FYAGfY+w62bC9mZHirU5kJqsMebHRbuQw81zabPKZvVa7j4cHLlfciXXRBGvYSrRif362SNqM1iYHNM6Jtym0RvCHmaOdDseg4xvIE2ri0lgefAYkoDlEDcEbPRAt0/OdfUwtWKbojp2tqhyVonH2nSI9CbnW8D7lqQdHVHbAt3kzbMD7RIAnOSsIWbsNyZYIDe1sKX4LQSrq1teB5afsFL4129SQv3J3dC1K2V4LNi4r9utXGTbZwX1siQCp7pOrWZwO+whEnXqfH0LJiRq0PTX/drNV8DArExuZy0tqBbM3pkXnMV3kC+d63hIh9uUqovr6ihjQusg1eJ0C3lIQbyN/AV+XFZqYKprLCsCRt3DKCT5hsFShS+9I2fKri4yCd+DGFysX383MIVIHzQ4RogmdGrOYQu8CtA4MgcQDsdQnz/VAF/ukNvWk/onNxbiB4ApIxzUJUXiU6vXA43MJF98GLqkKwlbyaH4oXB17vkcHWW38BEc8jqVXpKmz4NlNQTuDcPvWZOwpdsGlcLqYUblS+CUO9q8D1yTVuXOmeBgh7uEx2ZrGyAO+4gp+EbNp1z2Uljn869b0nTlZ1ZopCR6nxR06vnab8CE23PU5YiNOt27h1LSqP1hFUgKdzRxL296cWVNHToU6jHY9IthW9vXf1+i+PB9dFWJG6P+NZvh10/b/+4f6jsx08///zlO2eP/18/bGZ/+vJRtPrn/wI=);lineShape=1;strokeColor=default;strokeWidth=0;" vertex="1" parent="1">
          <mxGeometry x="85.43706291491344" y="-49.15637661570486" width="205.51961363829514" height="155.89628255908474" as="geometry" />
        </mxCell>
        <mxCell id="3bmiHGzcEPz1GjQgOXO5-9" value="" style="shape=stencil(lZbdUttADIWfxrdnpNX+XlN4D2YIjYc0YUKg5e3R1mOIlkSd3vnv88pHR8c7yc3L9v55MwV6OR0PT5vf88NpO8mPKYR5v90c55MeTXI7yc3j4bj5eTy87h+W8+f7/mQ/+nV462/4s3CNUEKnAr0vV2JCan+v3C3Abt6fAxmlGCAJWnWAhsoGyIKaXSCJAUoEeyUltGyAqis4QG2IFmiMFh1AVbIltYLE14FCyFYlJgLRdSITJNolGtiRKRGq7ZzqQE4jooBtI2oFO4BUkAVK84EMsrrmBhIHKGMjUkV1VIphXCGqW5zO6W1pFggITklaQK4G0CKzs0KuaMkCGSE53lARrZlU6OB8dG+TXUFbGfyBoGFG6V8zykPjCLFcB87c/OkNWoPh8hI6MBbQofJa3UdysGtbX3FZJh36YUg1GJySeqzYkr6i53KrBeXbjFYnBjQa6wBofHozmhCHoVZZHTN1QP4HkDima09Dx0whrm7+BBKyE0yc1rQ+i43ofHRBtW4tDHHaEMYwzrym7cXn1ar2AxKvKXLteWuLSODg1ZNsYgRfUc0TWz831xQcR4GYkZweBxmBBHEmRz0x/Bm0AY6garpBofHfpgdfO47HebdbNizn98cdil5adjdy+wE=);lineShape=1;strokeColor=default;" vertex="1" parent="1">
          <mxGeometry x="206.86315496036332" y="-21.144539431538306" width="2.5146227402378827" height="2.52233676160472" as="geometry" />
        </mxCell>
      </root>
    </mxGraphModel>
  </diagram>
</mxfile>
